<svg xmlns="http://www.w3.org/2000/svg" viewBox="0 0 32 32" id="exam">
  <g>
    <rect width="18" height="26" x="7" y="3" fill="#8ae5d0" rx="2"></rect>
    <path fill="#138072" d="M23,2H9A3,3,0,0,0,6,5V27a3,3,0,0,0,3,3H23a3,3,0,0,0,3-3V5A3,3,0,0,0,23,2Zm1,25a1,1,0,0,1-1,1H9a1,1,0,0,1-1-1V5A1,1,0,0,1,9,4H23a1,1,0,0,1,1,1Z"></path>
    <path fill="#138072" d="M21 15H11a1 1 0 000 2H21a1 1 0 000-2zM21 19H11a1 1 0 000 2H21a1 1 0 000-2zM21 23H11a1 1 0 000 2H21a1 1 0 000-2zM10.628 12.929a1 1 0 001.3-.557L12.077 12h2.846l.148.372A1 1 0 0016 13a1.015 1.015 0 00.372-.071 1 1 0 00.557-1.3l-2-5A1 1 0 0014 6H13a1 1 0 00-.929.628l-2 5A1 1 0 0010.628 12.929zM13.5 8.442L14.123 10H12.877zM18 9a1 1 0 002 0 1 1 0 000-2 1 1 0 00-2 0 1 1 0 000 2z"></path>
  </g>
</svg>
