<svg xml:space="preserve" viewBox="0 17.25 105.75000000000001 58" y="0px" x="0px" version="1.1" xmlns:xlink="http://www.w3.org/1999/xlink" xmlns="http://www.w3.org/2000/svg" style="max-height: 500px" width="105.75000000000001" height="58"><g><path d="M88.55,32.8L51.087,63.737c-2.178-0.246-4.442,0.432-6.111,2.101c-2.908,2.91-2.908,7.627,0,10.534   c2.91,2.91,7.625,2.91,10.535,0c1.668-1.668,2.346-3.93,2.101-6.105L88.55,32.8z M52.89,73.75c-1.462,1.463-3.83,1.463-5.293,0   c-1.46-1.46-1.46-3.827,0-5.289c1.463-1.462,3.831-1.462,5.293,0C54.35,69.923,54.35,72.29,52.89,73.75z"/><g><path d="M71.253,43.299l11.414-9.659c-8.77-7.588-20.187-12.194-32.666-12.194C22.431,21.446,0,43.875,0,71.444h14.679    c0-19.476,15.846-35.32,35.322-35.32C57.983,36.125,65.33,38.817,71.253,43.299z"/></g><g><path d="M85.348,41.476H90.1c-0.318-0.403-0.638-0.807-0.973-1.203h-2.763L85.348,41.476z"/><path d="M80.284,47.461h13.85c-0.225-0.405-0.467-0.805-0.708-1.203H81.301L80.284,47.461z"/><path d="M95.08,49.251h-16.31l-0.705,0.832c0.087,0.122,0.165,0.249,0.252,0.371h17.337C95.466,50.051,95.281,49.648,95.08,49.251    z"/><path d="M80.264,53.446h16.659c-0.155-0.405-0.322-0.804-0.487-1.203H79.539C79.794,52.638,80.025,53.046,80.264,53.446z"/><path d="M81.881,56.44h16.038c-0.121-0.403-0.241-0.806-0.372-1.203h-16.27C81.488,55.633,81.684,56.036,81.881,56.44z"/><path d="M82.814,44.469h9.474c-0.272-0.404-0.551-0.806-0.836-1.203h-7.621L82.814,44.469z"/><path d="M83.17,59.432h15.538c-0.091-0.402-0.191-0.804-0.292-1.203H82.68C82.848,58.628,83.019,59.025,83.17,59.432z"/><path d="M84.144,62.424h15.148c-0.067-0.404-0.142-0.804-0.219-1.203H83.768C83.892,61.621,84.032,62.015,84.144,62.424z"/><path d="M84.808,65.417h14.877c-0.044-0.402-0.081-0.807-0.131-1.203H84.549C84.633,64.615,84.737,65.006,84.808,65.417z"/><path d="M85.193,68.41h14.723c-0.021-0.404-0.044-0.805-0.07-1.203H85.043C85.093,67.608,85.16,67.999,85.193,68.41z"/><path d="M85.321,71.402H100c0-0.406-0.017-0.802-0.023-1.203H85.271C85.284,70.602,85.321,70.991,85.321,71.402z"/></g></g><text font-family="'Helvetica Neue', Helvetica, Arial-Unicode, Arial, Sans-serif" font-weight="bold" font-size="5px" fill="#000000" y="115" x="0">Created by Juan Pablo Bravo</text><text font-family="'Helvetica Neue', Helvetica, Arial-Unicode, Arial, Sans-serif" font-weight="bold" font-size="5px" fill="#000000" y="120" x="0">from the Noun Project</text></svg>